<svg width="40" height="65" viewBox="0 0 40 65" fill="none" xmlns="http://www.w3.org/2000/svg">
<path d="M0 10H5V15H0V10Z" fill="black"/>
<path d="M5 5H10V10H5V5Z" fill="black"/>
<path d="M10 0H15V5H10V0Z" fill="black"/>
<path d="M20 5H25V10H20V5Z" fill="black"/>
<path d="M25 10H30V15H25V10Z" fill="black"/>
<path d="M0 15H5V20H0V15Z" fill="black"/>
<path d="M5 15H10V20H5V15Z" fill="black"/>
<path d="M5 10H10V15H5V10Z" fill="black"/>
<path d="M10 5H15V10H10V5Z" fill="black"/>
<path d="M15 0H20V5H15V0Z" fill="black"/>
<path d="M25 5H30V10H25V5Z" fill="black"/>
<path d="M30 10H35V15H30V10Z" fill="black"/>
<path d="M30 15H35V20H30V15Z" fill="black"/>
<path d="M30 20H35V25H30V20Z" fill="black"/>
<path d="M30 25H35V30H30V25Z" fill="black"/>
<path d="M25 30H30V35H25V30Z" fill="black"/>
<path d="M20 35H25V40H20V35Z" fill="black"/>
<path d="M20 40H25V45H20V40Z" fill="black"/>
<path d="M20 45H25V50H20V45Z" fill="black"/>
<path d="M20 55H25V60H20V55Z" fill="black"/>
<path d="M20 60H25V65H20V60Z" fill="black"/>
<path d="M25 25H30V30H25V25Z" fill="black"/>
<path d="M20 30H25V35H20V30Z" fill="black"/>
<path d="M15 35H20V40H15V35Z" fill="black"/>
<path d="M15 40H20V45H15V40Z" fill="black"/>
<path d="M15 45H20V50H15V45Z" fill="black"/>
<path d="M15 55H20V60H15V55Z" fill="black"/>
<path d="M15 60H20V65H15V60Z" fill="black"/>
<path d="M10 10H15V15H10V10Z" fill="black"/>
<path d="M15 5H20V10H15V5Z" fill="black"/>
<path d="M20 0H25V5H20V0Z" fill="black"/>
<path d="M25 0H30V5H25V0Z" fill="black"/>
<path d="M30 5H35V10H30V5Z" fill="black"/>
<path d="M35 10H40V15H35V10Z" fill="black"/>
<path d="M35 15H40V20H35V15Z" fill="black"/>
<path d="M35 20H40V25H35V20Z" fill="black"/>
<path d="M35 25H40V30H35V25Z" fill="black"/>
<path d="M30 30H35V35H30V30Z" fill="black"/>
<path d="M25 35H30V40H25V35Z" fill="black"/>
</svg>
