<svg width="187" height="187" viewBox="0 0 187 187" fill="none" xmlns="http://www.w3.org/2000/svg">
<path d="M0 0H11V11H0V0Z" fill="black"/>
<path d="M110 0H121V11H110V0Z" fill="black"/>
<path d="M110 11H121V22H110V11Z" fill="black"/>
<path d="M11 11H22V22H11V11Z" fill="black"/>
<path d="M11 22H22V33H11V22Z" fill="#43413F"/>
<path d="M110 22H121V33H110V22Z" fill="black"/>
<path d="M88 22H99V33H88V22Z" fill="black"/>
<path d="M11 33H22V44H11V33Z" fill="#43413F"/>
<path d="M11 44H22V55H11V44Z" fill="black"/>
<path d="M11 66H22V77H11V66Z" fill="#FF9A27"/>
<path d="M11 88H22V99H11V88Z" fill="#FF9A27"/>
<path d="M11 110H22V121H11V110Z" fill="#FF9A27"/>
<path d="M11 132H22V143H11V132Z" fill="#FF9A27"/>
<path d="M11 55H22V66H11V55Z" fill="#FF9A27"/>
<path d="M11 77H22V88H11V77Z" fill="#FF9A27"/>
<path d="M11 99H22V110H11V99Z" fill="#FF9A27"/>
<path d="M11 121H22V132H11V121Z" fill="#FF9A27"/>
<path d="M11 143H22V154H11V143Z" fill="#FF9A27"/>
<path d="M11 154H22V165H11V154Z" fill="black"/>
<path d="M55 44H66V55H55V44Z" fill="black"/>
<path d="M55 66H66V77H55V66Z" fill="#FF9A27"/>
<path d="M55 88H66V99H55V88Z" fill="#FF9A27"/>
<path d="M55 110H66V121H55V110Z" fill="black"/>
<path d="M55 132H66V143H55V132Z" fill="#FF9A27"/>
<path d="M55 55H66V66H55V55Z" fill="#FF9A27"/>
<path d="M55 77H66V88H55V77Z" fill="#FF9A27"/>
<path d="M55 99H66V110H55V99Z" fill="#FF9A27"/>
<path d="M55 121H66V132H55V121Z" fill="black"/>
<path d="M55 143H66V154H55V143Z" fill="#FF9A27"/>
<path d="M55 154H66V165H55V154Z" fill="black"/>
<path d="M99 44H110V55H99V44Z" fill="black"/>
<path d="M99 66H110V77H99V66Z" fill="#FF9A27"/>
<path d="M99 88H110V99H99V88Z" fill="#FF9A27"/>
<path d="M99 110H110V121H99V110Z" fill="#FF9A27"/>
<path d="M99 132H110V143H99V132Z" fill="#FF9A27"/>
<path d="M154 132H165V143H154V132Z" fill="#FF9A27"/>
<path d="M154 99H165V110H154V99Z" fill="#FF9A27"/>
<path d="M154 66H165V77H154V66Z" fill="black"/>
<path d="M154 44H165V55H154V44Z" fill="black"/>
<path d="M154 22H165V33H154V22Z" fill="black"/>
<path d="M132 22H143V33H132V22Z" fill="black"/>
<path d="M176 33H187V44H176V33Z" fill="black"/>
<path d="M176 11H187V22H176V11Z" fill="black"/>
<path d="M176 0H187V11H176V0Z" fill="black"/>
<path d="M99 55H110V66H99V55Z" fill="#FF9A27"/>
<path d="M99 77H110V88H99V77Z" fill="#FF9A27"/>
<path d="M99 99H110V110H99V99Z" fill="#FF9A27"/>
<path d="M99 121H110V132H99V121Z" fill="#FF9A27"/>
<path d="M99 143H110V154H99V143Z" fill="#FF9A27"/>
<path d="M154 143H165V154H154V143Z" fill="#FF9A27"/>
<path d="M154 110H165V121H154V110Z" fill="#FF9A27"/>
<path d="M154 77H165V88H154V77Z" fill="#43413F"/>
<path d="M154 55H165V66H154V55Z" fill="black"/>
<path d="M176 44H187V55H176V44Z" fill="black"/>
<path d="M176 22H187V33H176V22Z" fill="black"/>
<path d="M99 154H110V165H99V154Z" fill="black"/>
<path d="M154 154H165V165H154V154Z" fill="black"/>
<path d="M154 121H165V132H154V121Z" fill="#FF9A27"/>
<path d="M154 88H165V99H154V88Z" fill="#FF9A27"/>
<path d="M110 33H121V44H110V33Z" fill="black"/>
<path d="M88 33H99V44H88V33Z" fill="#43413F"/>
<path d="M33 33H44V44H33V33Z" fill="black"/>
<path d="M33 44H44V55H33V44Z" fill="black"/>
<path d="M33 66H44V77H33V66Z" fill="#FF9A27"/>
<path d="M33 88H44V99H33V88Z" fill="#FF9A27"/>
<path d="M33 110H44V121H33V110Z" fill="#FF9A27"/>
<path d="M33 132H44V143H33V132Z" fill="black"/>
<path d="M33 55H44V66H33V55Z" fill="#FF9A27"/>
<path d="M33 77H44V88H33V77Z" fill="black"/>
<path d="M33 99H44V110H33V99Z" fill="#FF9A27"/>
<path d="M33 121H44V132H33V121Z" fill="#FF9A27"/>
<path d="M33 143H44V154H33V143Z" fill="#FF9A27"/>
<path d="M33 154H44V165H33V154Z" fill="#FF9A27"/>
<path d="M33 165H44V176H33V165Z" fill="#43413F"/>
<path d="M33 176H44V187H33V176Z" fill="black"/>
<path d="M77 44H88V55H77V44Z" fill="black"/>
<path d="M77 66H88V77H77V66Z" fill="#FF9A27"/>
<path d="M77 88H88V99H77V88Z" fill="#FF9A27"/>
<path d="M77 110H88V121H77V110Z" fill="#FF9A27"/>
<path d="M77 132H88V143H77V132Z" fill="black"/>
<path d="M132 132H143V143H132V132Z" fill="black"/>
<path d="M77 55H88V66H77V55Z" fill="#FF9A27"/>
<path d="M77 77H88V88H77V77Z" fill="black"/>
<path d="M77 99H88V110H77V99Z" fill="#FF9A27"/>
<path d="M77 121H88V132H77V121Z" fill="#FF9A27"/>
<path d="M77 143H88V154H77V143Z" fill="#FF9A27"/>
<path d="M132 143H143V154H132V143Z" fill="#FF9A27"/>
<path d="M77 154H88V165H77V154Z" fill="#FF9A27"/>
<path d="M132 154H143V165H132V154Z" fill="black"/>
<path d="M77 165H88V176H77V165Z" fill="#43413F"/>
<path d="M77 176H88V187H77V176Z" fill="black"/>
<path d="M99 11H110V22H99V11Z" fill="black"/>
<path d="M0 11H11V22H0V11Z" fill="black"/>
<path d="M0 22H11V33H0V22Z" fill="black"/>
<path d="M99 22H110V33H99V22Z" fill="#43413F"/>
<path d="M22 22H33V33H22V22Z" fill="black"/>
<path d="M0 33H11V44H0V33Z" fill="black"/>
<path d="M0 44H11V55H0V44Z" fill="black"/>
<path d="M0 66H11V77H0V66Z" fill="black"/>
<path d="M0 88H11V99H0V88Z" fill="black"/>
<path d="M0 110H11V121H0V110Z" fill="black"/>
<path d="M0 132H11V143H0V132Z" fill="black"/>
<path d="M0 55H11V66H0V55Z" fill="black"/>
<path d="M0 77H11V88H0V77Z" fill="black"/>
<path d="M0 99H11V110H0V99Z" fill="black"/>
<path d="M0 121H11V132H0V121Z" fill="black"/>
<path d="M0 143H11V154H0V143Z" fill="black"/>
<path d="M0 154H11V165H0V154Z" fill="black"/>
<path d="M44 44H55V55H44V44Z" fill="black"/>
<path d="M44 66H55V77H44V66Z" fill="#FF9A27"/>
<path d="M44 88H55V99H44V88Z" fill="black"/>
<path d="M44 110H55V121H44V110Z" fill="black"/>
<path d="M44 132H55V143H44V132Z" fill="black"/>
<path d="M44 55H55V66H44V55Z" fill="#FF9A27"/>
<path d="M44 77H55V88H44V77Z" fill="#FF9A27"/>
<path d="M44 99H55V110H44V99Z" fill="#FF9A27"/>
<path d="M44 121H55V132H44V121Z" fill="#FF9A27"/>
<path d="M44 143H55V154H44V143Z" fill="#FF9A27"/>
<path d="M44 154H55V165H44V154Z" fill="black"/>
<path d="M44 165H55V176H44V165Z" fill="black"/>
<path d="M44 176H55V187H44V176Z" fill="black"/>
<path d="M88 44H99V55H88V44Z" fill="black"/>
<path d="M88 66H99V77H88V66Z" fill="#FF9A27"/>
<path d="M88 88H99V99H88V88Z" fill="black"/>
<path d="M88 110H99V121H88V110Z" fill="#FF9A27"/>
<path d="M88 132H99V143H88V132Z" fill="#FF9A27"/>
<path d="M143 132H154V143H143V132Z" fill="black"/>
<path d="M143 99H154V110H143V99Z" fill="black"/>
<path d="M143 66H154V77H143V66Z" fill="#43413F"/>
<path d="M143 44H154V55H143V44Z" fill="black"/>
<path d="M165 33H176V44H165V33Z" fill="#43413F"/>
<path d="M165 11H176V22H165V11Z" fill="#43413F"/>
<path d="M165 0H176V11H165V0Z" fill="black"/>
<path d="M143 11H154V22H143V11Z" fill="#43413F"/>
<path d="M143 0H154V11H143V0Z" fill="black"/>
<path d="M132 66H143V77H132V66Z" fill="black"/>
<path d="M132 44H143V55H132V44Z" fill="black"/>
<path d="M154 33H165V44H154V33Z" fill="black"/>
<path d="M154 11H165V22H154V11Z" fill="#43413F"/>
<path d="M154 0H165V11H154V0Z" fill="black"/>
<path d="M132 11H143V22H132V11Z" fill="black"/>
<path d="M132 0H143V11H132V0Z" fill="black"/>
<path d="M88 55H99V66H88V55Z" fill="#FF9A27"/>
<path d="M88 77H99V88H88V77Z" fill="#FF9A27"/>
<path d="M88 99H99V110H88V99Z" fill="#FF9A27"/>
<path d="M88 121H99V132H88V121Z" fill="black"/>
<path d="M88 143H99V154H88V143Z" fill="#FF9A27"/>
<path d="M143 143H154V154H143V143Z" fill="#FF9A27"/>
<path d="M143 110H154V121H143V110Z" fill="black"/>
<path d="M143 77H154V88H143V77Z" fill="#43413F"/>
<path d="M143 55H154V66H143V55Z" fill="#43413F"/>
<path d="M165 44H176V55H165V44Z" fill="black"/>
<path d="M165 22H176V33H165V22Z" fill="#43413F"/>
<path d="M143 22H154V33H143V22Z" fill="black"/>
<path d="M132 77H143V88H132V77Z" fill="black"/>
<path d="M132 55H143V66H132V55Z" fill="black"/>
<path d="M88 154H99V165H88V154Z" fill="black"/>
<path d="M143 154H154V165H143V154Z" fill="black"/>
<path d="M143 121H154V132H143V121Z" fill="black"/>
<path d="M143 88H154V99H143V88Z" fill="black"/>
<path d="M132 88H143V99H132V88Z" fill="black"/>
<path d="M88 165H99V176H88V165Z" fill="black"/>
<path d="M88 176H99V187H88V176Z" fill="black"/>
<path d="M99 33H110V44H99V33Z" fill="#43413F"/>
<path d="M77 33H88V44H77V33Z" fill="black"/>
<path d="M22 33H33V44H22V33Z" fill="#43413F"/>
<path d="M22 44H33V55H22V44Z" fill="black"/>
<path d="M22 66H33V77H22V66Z" fill="#FF9A27"/>
<path d="M22 88H33V99H22V88Z" fill="black"/>
<path d="M22 110H33V121H22V110Z" fill="#FF9A27"/>
<path d="M22 132H33V143H22V132Z" fill="#FF9A27"/>
<path d="M22 55H33V66H22V55Z" fill="#FF9A27"/>
<path d="M22 77H33V88H22V77Z" fill="#FF9A27"/>
<path d="M22 99H33V110H22V99Z" fill="#FF9A27"/>
<path d="M22 121H33V132H22V121Z" fill="black"/>
<path d="M22 143H33V154H22V143Z" fill="#FF9A27"/>
<path d="M22 154H33V165H22V154Z" fill="black"/>
<path d="M22 165H33V176H22V165Z" fill="black"/>
<path d="M22 176H33V187H22V176Z" fill="black"/>
<path d="M66 44H77V55H66V44Z" fill="black"/>
<path d="M66 66H77V77H66V66Z" fill="#FF9A27"/>
<path d="M66 88H77V99H66V88Z" fill="black"/>
<path d="M66 110H77V121H66V110Z" fill="black"/>
<path d="M66 132H77V143H66V132Z" fill="black"/>
<path d="M121 132H132V143H121V132Z" fill="black"/>
<path d="M66 55H77V66H66V55Z" fill="#FF9A27"/>
<path d="M66 77H77V88H66V77Z" fill="#FF9A27"/>
<path d="M66 99H77V110H66V99Z" fill="#FF9A27"/>
<path d="M66 121H77V132H66V121Z" fill="#FF9A27"/>
<path d="M66 143H77V154H66V143Z" fill="#FF9A27"/>
<path d="M121 143H132V154H121V143Z" fill="#FF9A27"/>
<path d="M66 154H77V165H66V154Z" fill="black"/>
<path d="M121 154H132V165H121V154Z" fill="black"/>
<path d="M66 165H77V176H66V165Z" fill="black"/>
<path d="M66 176H77V187H66V176Z" fill="black"/>
<path d="M110 44H121V55H110V44Z" fill="black"/>
<path d="M110 66H121V77H110V66Z" fill="black"/>
<path d="M110 88H121V99H110V88Z" fill="black"/>
<path d="M110 110H121V121H110V110Z" fill="black"/>
<path d="M110 132H121V143H110V132Z" fill="black"/>
<path d="M165 132H176V143H165V132Z" fill="black"/>
<path d="M165 99H176V110H165V99Z" fill="black"/>
<path d="M165 66H176V77H165V66Z" fill="black"/>
<path d="M110 55H121V66H110V55Z" fill="black"/>
<path d="M110 77H121V88H110V77Z" fill="black"/>
<path d="M110 99H121V110H110V99Z" fill="black"/>
<path d="M110 121H121V132H110V121Z" fill="black"/>
<path d="M110 143H121V154H110V143Z" fill="black"/>
<path d="M165 143H176V154H165V143Z" fill="black"/>
<path d="M165 110H176V121H165V110Z" fill="black"/>
<path d="M165 77H176V88H165V77Z" fill="black"/>
<path d="M110 154H121V165H110V154Z" fill="black"/>
<path d="M165 154H176V165H165V154Z" fill="black"/>
<path d="M165 121H176V132H165V121Z" fill="black"/>
<path d="M165 88H176V99H165V88Z" fill="black"/>
</svg>
