<svg width="275" height="275" viewBox="0 0 275 275" fill="none" xmlns="http://www.w3.org/2000/svg">
<path d="M132 0H143V11H132V0Z" fill="black"/>
<path d="M143 275H132V264H143V275Z" fill="black"/>
<path d="M132 11H143V22H132V11Z" fill="#E7AE25"/>
<path d="M143 264H132V253H143V264Z" fill="#E7AE25"/>
<path d="M132 22H143V33H132V22Z" fill="#E7AE25"/>
<path d="M143 253H132V242H143V253Z" fill="#E7AE25"/>
<path d="M132 33H143V44H132V33Z" fill="#E7AE25"/>
<path d="M143 242H132V231H143V242Z" fill="#E7AE25"/>
<path d="M132 44H143V55H132V44Z" fill="#E7AE25"/>
<path d="M143 231H132V220H143V231Z" fill="#E7AE25"/>
<path d="M132 55H143V66H132V55Z" fill="#E7AE25"/>
<path d="M143 220H132V209H143V220Z" fill="#E7AE25"/>
<path d="M132 66H143V77H132V66Z" fill="#E7AE25"/>
<path d="M132 77H143V88H132V77Z" fill="black"/>
<path d="M132 110H143V121H132V110Z" fill="#F0D448"/>
<path d="M132 143H143V154H132V143Z" fill="#E7C725"/>
<path d="M132 176H143V187H132V176Z" fill="#E7C725"/>
<path d="M132 88H143V99H132V88Z" fill="#E7C725"/>
<path d="M132 121H143V132H132V121Z" fill="#E7C725"/>
<path d="M132 154H143V165H132V154Z" fill="#E7C725"/>
<path d="M132 187H143V198H132V187Z" fill="black"/>
<path d="M132 99H143V110H132V99Z" fill="#E7C725"/>
<path d="M132 132H143V143H132V132Z" fill="#E7C725"/>
<path d="M132 165H143V176H132V165Z" fill="#E7C725"/>
<path d="M132 198H143V209H132V198Z" fill="#C9961C"/>
<path d="M77 55H88V66H77V55Z" fill="black"/>
<path d="M198 220H187V209H198V220Z" fill="black"/>
<path d="M77 66H88V77H77V66Z" fill="#E7AE25"/>
<path d="M77 77H88V88H77V77Z" fill="#E7AE25"/>
<path d="M77 110H88V121H77V110Z" fill="black"/>
<path d="M77 143H88V154H77V143Z" fill="black"/>
<path d="M77 176H88V187H77V176Z" fill="#E7AE25"/>
<path d="M77 88H88V99H77V88Z" fill="#E7AE25"/>
<path d="M77 121H88V132H77V121Z" fill="black"/>
<path d="M77 154H88V165H77V154Z" fill="black"/>
<path d="M77 187H88V198H77V187Z" fill="#E7AE25"/>
<path d="M77 99H88V110H77V99Z" fill="#E7AE25"/>
<path d="M77 132H88V143H77V132Z" fill="black"/>
<path d="M77 165H88V176H77V165Z" fill="#E7AE25"/>
<path d="M77 198H88V209H77V198Z" fill="#E7AE25"/>
<path d="M187 55H198V66H187V55Z" fill="black"/>
<path d="M88 220H77V209H88V220Z" fill="black"/>
<path d="M187 66H198V77H187V66Z" fill="#E7AE25"/>
<path d="M187 77H198V88H187V77Z" fill="#E7AE25"/>
<path d="M187 110H198V121H187V110Z" fill="black"/>
<path d="M187 143H198V154H187V143Z" fill="black"/>
<path d="M187 176H198V187H187V176Z" fill="#E7AE25"/>
<path d="M187 88H198V99H187V88Z" fill="#E7AE25"/>
<path d="M187 121H198V132H187V121Z" fill="black"/>
<path d="M187 154H198V165H187V154Z" fill="black"/>
<path d="M187 187H198V198H187V187Z" fill="#E7AE25"/>
<path d="M187 99H198V110H187V99Z" fill="#E7AE25"/>
<path d="M187 132H198V143H187V132Z" fill="black"/>
<path d="M187 165H198V176H187V165Z" fill="#C9961C"/>
<path d="M187 198H198V209H187V198Z" fill="#E7AE25"/>
<path d="M143 11H154V22H143V11Z" fill="black"/>
<path d="M132 264H121V253H132V264Z" fill="black"/>
<path d="M143 22H154V33H143V22Z" fill="black"/>
<path d="M132 253H121V242H132V253Z" fill="black"/>
<path d="M143 33H154V44H143V33Z" fill="black"/>
<path d="M132 242H121V231H132V242Z" fill="black"/>
<path d="M143 44H154V55H143V44Z" fill="#E7AE25"/>
<path d="M132 231H121V220H132V231Z" fill="#E7AE25"/>
<path d="M143 55H154V66H143V55Z" fill="#E7AE25"/>
<path d="M132 220H121V209H132V220Z" fill="#E7AE25"/>
<path d="M143 66H154V77H143V66Z" fill="#E7AE25"/>
<path d="M143 77H154V88H143V77Z" fill="black"/>
<path d="M143 110H154V121H143V110Z" fill="#E7C725"/>
<path d="M143 143H154V154H143V143Z" fill="#E7C725"/>
<path d="M143 176H154V187H143V176Z" fill="#E7C725"/>
<path d="M143 88H154V99H143V88Z" fill="#E7C725"/>
<path d="M143 121H154V132H143V121Z" fill="#E7C725"/>
<path d="M143 154H154V165H143V154Z" fill="#E7C725"/>
<path d="M143 187H154V198H143V187Z" fill="black"/>
<path d="M143 99H154V110H143V99Z" fill="#E7C725"/>
<path d="M143 132H154V143H143V132Z" fill="#E7C725"/>
<path d="M143 165H154V176H143V165Z" fill="#E7C725"/>
<path d="M143 198H154V209H143V198Z" fill="#C9961C"/>
<path d="M88 55H99V66H88V55Z" fill="black"/>
<path d="M187 220H176V209H187V220Z" fill="black"/>
<path d="M88 66H99V77H88V66Z" fill="#E7AE25"/>
<path d="M88 77H99V88H88V77Z" fill="#E7AE25"/>
<path d="M88 110H99V121H88V110Z" fill="#E7C725"/>
<path d="M88 143H99V154H88V143Z" fill="#E7C725"/>
<path d="M88 176H99V187H88V176Z" fill="#E7AE25"/>
<path d="M88 88H99V99H88V88Z" fill="#E7AE25"/>
<path d="M88 121H99V132H88V121Z" fill="#E7C725"/>
<path d="M88 154H99V165H88V154Z" fill="#E7C725"/>
<path d="M88 187H99V198H88V187Z" fill="#E7AE25"/>
<path d="M88 99H99V110H88V99Z" fill="black"/>
<path d="M88 132H99V143H88V132Z" fill="#E7C725"/>
<path d="M88 165H99V176H88V165Z" fill="black"/>
<path d="M88 198H99V209H88V198Z" fill="#E7AE25"/>
<path d="M198 55H209V66H198V55Z" fill="#E7AE25"/>
<path d="M77 220H66V209H77V220Z" fill="#E7AE25"/>
<path d="M198 44H209V55H198V44Z" fill="black"/>
<path d="M77 231H66V220H77V231Z" fill="black"/>
<path d="M209 33H220V44H209V33Z" fill="black"/>
<path d="M66 242H55V231H66V242Z" fill="black"/>
<path d="M198 66H209V77H198V66Z" fill="#E7AE25"/>
<path d="M198 77H209V88H198V77Z" fill="black"/>
<path d="M198 110H209V121H198V110Z" fill="#E7AE25"/>
<path d="M209 110H220V121H209V110Z" fill="#E7AE25"/>
<path d="M55 154H66V165H55V154Z" fill="#E7AE25"/>
<path d="M220 110H231V121H220V110Z" fill="black"/>
<path d="M44 154H55V165H44V154Z" fill="black"/>
<path d="M198 143H209V154H198V143Z" fill="#E7AE25"/>
<path d="M209 143H220V154H209V143Z" fill="#E7AE25"/>
<path d="M55 121H66V132H55V121Z" fill="#E7AE25"/>
<path d="M220 143H231V154H220V143Z" fill="#E7AE25"/>
<path d="M44 121H55V132H44V121Z" fill="#E7AE25"/>
<path d="M231 143H242V154H231V143Z" fill="black"/>
<path d="M33 121H44V132H33V121Z" fill="black"/>
<path d="M242 143H253V154H242V143Z" fill="black"/>
<path d="M22 121H33V132H22V121Z" fill="black"/>
<path d="M253 143H264V154H253V143Z" fill="black"/>
<path d="M11 121H22V132H11V121Z" fill="black"/>
<path d="M198 176H209V187H198V176Z" fill="black"/>
<path d="M198 88H209V99H198V88Z" fill="black"/>
<path d="M198 121H209V132H198V121Z" fill="#E7AE25"/>
<path d="M209 121H220V132H209V121Z" fill="#E7AE25"/>
<path d="M55 143H66V154H55V143Z" fill="#E7AE25"/>
<path d="M220 121H231V132H220V121Z" fill="#E7AE25"/>
<path d="M44 143H55V154H44V143Z" fill="#E7AE25"/>
<path d="M231 121H242V132H231V121Z" fill="black"/>
<path d="M33 143H44V154H33V143Z" fill="black"/>
<path d="M242 121H253V132H242V121Z" fill="black"/>
<path d="M22 143H33V154H22V143Z" fill="black"/>
<path d="M253 121H264V132H253V121Z" fill="black"/>
<path d="M11 143H22V154H11V143Z" fill="black"/>
<path d="M198 154H209V165H198V154Z" fill="#E7AE25"/>
<path d="M209 154H220V165H209V154Z" fill="#E7AE25"/>
<path d="M55 110H66V121H55V110Z" fill="#E7AE25"/>
<path d="M220 154H231V165H220V154Z" fill="black"/>
<path d="M44 110H55V121H44V110Z" fill="black"/>
<path d="M198 187H209V198H198V187Z" fill="black"/>
<path d="M198 99H209V110H198V99Z" fill="#E7AE25"/>
<path d="M209 99H220V110H209V99Z" fill="black"/>
<path d="M55 165H66V176H55V165Z" fill="black"/>
<path d="M198 132H209V143H198V132Z" fill="#E7AE25"/>
<path d="M209 132H220V143H209V132Z" fill="#E7AE25"/>
<path d="M55 132H66V143H55V132Z" fill="#E7AE25"/>
<path d="M220 132H231V143H220V132Z" fill="#E7AE25"/>
<path d="M44 132H55V143H44V132Z" fill="#E7AE25"/>
<path d="M231 132H242V143H231V132Z" fill="#E7AE25"/>
<path d="M33 132H44V143H33V132Z" fill="#E7AE25"/>
<path d="M242 132H253V143H242V132Z" fill="#E7AE25"/>
<path d="M22 132H33V143H22V132Z" fill="#E7AE25"/>
<path d="M253 132H264V143H253V132Z" fill="#E7AE25"/>
<path d="M11 132H22V143H11V132Z" fill="#E7AE25"/>
<path d="M264 132H275V143H264V132Z" fill="black"/>
<path d="M0 132H11V143H0V132Z" fill="black"/>
<path d="M198 165H209V176H198V165Z" fill="#E7AE25"/>
<path d="M209 165H220V176H209V165Z" fill="black"/>
<path d="M55 99H66V110H55V99Z" fill="black"/>
<path d="M198 198H209V209H198V198Z" fill="#E7AE25"/>
<path d="M209 198H220V209H209V198Z" fill="black"/>
<path d="M154 44H165V55H154V44Z" fill="black"/>
<path d="M121 231H110V220H121V231Z" fill="black"/>
<path d="M154 55H165V66H154V55Z" fill="#E7AE25"/>
<path d="M121 220H110V209H121V220Z" fill="#E7AE25"/>
<path d="M154 66H165V77H154V66Z" fill="#E7AE25"/>
<path d="M154 77H165V88H154V77Z" fill="black"/>
<path d="M154 110H165V121H154V110Z" fill="#E7C725"/>
<path d="M154 143H165V154H154V143Z" fill="#E7C725"/>
<path d="M154 176H165V187H154V176Z" fill="#E7C725"/>
<path d="M154 88H165V99H154V88Z" fill="#E7C725"/>
<path d="M154 121H165V132H154V121Z" fill="#E7C725"/>
<path d="M154 154H165V165H154V154Z" fill="#E7C725"/>
<path d="M154 187H165V198H154V187Z" fill="black"/>
<path d="M154 99H165V110H154V99Z" fill="#E7C725"/>
<path d="M154 132H165V143H154V132Z" fill="#E7C725"/>
<path d="M154 165H165V176H154V165Z" fill="#E7C725"/>
<path d="M154 198H165V209H154V198Z" fill="#C9961C"/>
<path d="M99 55H110V66H99V55Z" fill="black"/>
<path d="M176 220H165V209H176V220Z" fill="black"/>
<path d="M99 66H110V77H99V66Z" fill="#E7AE25"/>
<path d="M99 77H110V88H99V77Z" fill="#E7AE25"/>
<path d="M99 110H110V121H99V110Z" fill="#E7C725"/>
<path d="M99 143H110V154H99V143Z" fill="#E7C725"/>
<path d="M99 176H110V187H99V176Z" fill="black"/>
<path d="M99 88H110V99H99V88Z" fill="black"/>
<path d="M99 121H110V132H99V121Z" fill="#F0D448"/>
<path d="M99 154H110V165H99V154Z" fill="#E7C725"/>
<path d="M99 187H110V198H99V187Z" fill="#E7AE25"/>
<path d="M99 99H110V110H99V99Z" fill="#E7C725"/>
<path d="M99 132H110V143H99V132Z" fill="#F0D448"/>
<path d="M99 165H110V176H99V165Z" fill="#E7C725"/>
<path d="M99 198H110V209H99V198Z" fill="#E7AE25"/>
<path d="M209 55H220V66H209V55Z" fill="black"/>
<path d="M66 220H55V209H66V220Z" fill="black"/>
<path d="M209 44H220V55H209V44Z" fill="#E7AE25"/>
<path d="M66 231H55V220H66V231Z" fill="#E7AE25"/>
<path d="M220 33H231V44H220V33Z" fill="black"/>
<path d="M55 242H44V231H55V242Z" fill="black"/>
<path d="M220 44H231V55H220V44Z" fill="black"/>
<path d="M55 231H44V220H55V231Z" fill="black"/>
<path d="M209 66H220V77H209V66Z" fill="black"/>
<path d="M121 11H132V22H121V11Z" fill="black"/>
<path d="M154 264H143V253H154V264Z" fill="black"/>
<path d="M121 22H132V33H121V22Z" fill="black"/>
<path d="M154 253H143V242H154V253Z" fill="black"/>
<path d="M121 33H132V44H121V33Z" fill="black"/>
<path d="M154 242H143V231H154V242Z" fill="black"/>
<path d="M121 44H132V55H121V44Z" fill="#E7AE25"/>
<path d="M154 231H143V220H154V231Z" fill="#E7AE25"/>
<path d="M121 55H132V66H121V55Z" fill="#E7AE25"/>
<path d="M154 220H143V209H154V220Z" fill="#E7AE25"/>
<path d="M121 66H132V77H121V66Z" fill="#E7AE25"/>
<path d="M121 77H132V88H121V77Z" fill="black"/>
<path d="M121 110H132V121H121V110Z" fill="#F0D448"/>
<path d="M121 143H132V154H121V143Z" fill="#E7C725"/>
<path d="M121 176H132V187H121V176Z" fill="#E7C725"/>
<path d="M121 88H132V99H121V88Z" fill="#E7C725"/>
<path d="M121 121H132V132H121V121Z" fill="#F0D448"/>
<path d="M121 154H132V165H121V154Z" fill="#E7C725"/>
<path d="M121 187H132V198H121V187Z" fill="black"/>
<path d="M121 99H132V110H121V99Z" fill="#E7C725"/>
<path d="M121 132H132V143H121V132Z" fill="#E7C725"/>
<path d="M121 165H132V176H121V165Z" fill="#E7C725"/>
<path d="M121 198H132V209H121V198Z" fill="#C9961C"/>
<path d="M66 55H77V66H66V55Z" fill="#E7AE25"/>
<path d="M209 220H198V209H209V220Z" fill="#E7AE25"/>
<path d="M66 44H77V55H66V44Z" fill="black"/>
<path d="M209 231H198V220H209V231Z" fill="black"/>
<path d="M55 33H66V44H55V33Z" fill="black"/>
<path d="M220 242H209V231H220V242Z" fill="black"/>
<path d="M66 66H77V77H66V66Z" fill="#E7AE25"/>
<path d="M66 77H77V88H66V77Z" fill="black"/>
<path d="M66 110H77V121H66V110Z" fill="#E7AE25"/>
<path d="M66 143H77V154H66V143Z" fill="#E7AE25"/>
<path d="M66 176H77V187H66V176Z" fill="black"/>
<path d="M66 88H77V99H66V88Z" fill="black"/>
<path d="M66 121H77V132H66V121Z" fill="#E7AE25"/>
<path d="M66 154H77V165H66V154Z" fill="#E7AE25"/>
<path d="M66 187H77V198H66V187Z" fill="black"/>
<path d="M66 99H77V110H66V99Z" fill="#E7AE25"/>
<path d="M66 132H77V143H66V132Z" fill="#E7AE25"/>
<path d="M66 165H77V176H66V165Z" fill="#E7AE25"/>
<path d="M66 198H77V209H66V198Z" fill="#E7AE25"/>
<path d="M55 198H66V209H55V198Z" fill="black"/>
<path d="M176 55H187V66H176V55Z" fill="black"/>
<path d="M99 220H88V209H99V220Z" fill="black"/>
<path d="M176 66H187V77H176V66Z" fill="#E7AE25"/>
<path d="M176 77H187V88H176V77Z" fill="#E7AE25"/>
<path d="M176 110H187V121H176V110Z" fill="#E7C725"/>
<path d="M176 143H187V154H176V143Z" fill="#E7C725"/>
<path d="M176 176H187V187H176V176Z" fill="#C9961C"/>
<path d="M176 88H187V99H176V88Z" fill="#E7AE25"/>
<path d="M176 121H187V132H176V121Z" fill="#E7C725"/>
<path d="M176 154H187V165H176V154Z" fill="#E7C725"/>
<path d="M176 187H187V198H176V187Z" fill="#E7AE25"/>
<path d="M176 99H187V110H176V99Z" fill="black"/>
<path d="M176 132H187V143H176V132Z" fill="#E7C725"/>
<path d="M176 165H187V176H176V165Z" fill="black"/>
<path d="M176 198H187V209H176V198Z" fill="#E7AE25"/>
<path d="M110 44H121V55H110V44Z" fill="black"/>
<path d="M165 231H154V220H165V231Z" fill="black"/>
<path d="M110 55H121V66H110V55Z" fill="#E7AE25"/>
<path d="M165 220H154V209H165V220Z" fill="#E7AE25"/>
<path d="M110 66H121V77H110V66Z" fill="#E7AE25"/>
<path d="M110 77H121V88H110V77Z" fill="black"/>
<path d="M110 110H121V121H110V110Z" fill="#F0D448"/>
<path d="M110 143H121V154H110V143Z" fill="#E7C725"/>
<path d="M110 176H121V187H110V176Z" fill="#E7C725"/>
<path d="M110 88H121V99H110V88Z" fill="#E7C725"/>
<path d="M110 121H121V132H110V121Z" fill="#F0D448"/>
<path d="M110 154H121V165H110V154Z" fill="#E7C725"/>
<path d="M110 187H121V198H110V187Z" fill="black"/>
<path d="M110 99H121V110H110V99Z" fill="#E7C725"/>
<path d="M110 132H121V143H110V132Z" fill="#F0D448"/>
<path d="M110 165H121V176H110V165Z" fill="#E7C725"/>
<path d="M110 198H121V209H110V198Z" fill="#C9961C"/>
<path d="M55 55H66V66H55V55Z" fill="black"/>
<path d="M220 220H209V209H220V220Z" fill="black"/>
<path d="M55 44H66V55H55V44Z" fill="#E7AE25"/>
<path d="M220 231H209V220H220V231Z" fill="#E7AE25"/>
<path d="M44 44H55V55H44V44Z" fill="black"/>
<path d="M231 231H220V220H231V231Z" fill="black"/>
<path d="M44 33H55V44H44V33Z" fill="black"/>
<path d="M231 242H220V231H231V242Z" fill="black"/>
<path d="M55 66H66V77H55V66Z" fill="black"/>
<path d="M165 55H176V66H165V55Z" fill="black"/>
<path d="M110 220H99V209H110V220Z" fill="black"/>
<path d="M165 66H176V77H165V66Z" fill="#E7AE25"/>
<path d="M165 77H176V88H165V77Z" fill="#E7AE25"/>
<path d="M165 110H176V121H165V110Z" fill="#E7C725"/>
<path d="M165 143H176V154H165V143Z" fill="#E7C725"/>
<path d="M165 176H176V187H165V176Z" fill="black"/>
<path d="M165 88H176V99H165V88Z" fill="black"/>
<path d="M165 121H176V132H165V121Z" fill="#E7C725"/>
<path d="M165 154H176V165H165V154Z" fill="#E7C725"/>
<path d="M165 187H176V198H165V187Z" fill="#C9961C"/>
<path d="M165 99H176V110H165V99Z" fill="#E7C725"/>
<path d="M165 132H176V143H165V132Z" fill="#E7C725"/>
<path d="M165 165H176V176H165V165Z" fill="#E7C725"/>
<path d="M165 198H176V209H165V198Z" fill="#E7AE25"/>
</svg>
