<svg width="126" height="120" viewBox="0 0 126 120" fill="none" xmlns="http://www.w3.org/2000/svg">
<path d="M36 0H42V6H36V0Z" fill="black"/>
<path d="M36 6H42V12H36V6Z" fill="#43413F"/>
<path d="M36 12H42V18H36V12Z" fill="#43413F"/>
<path d="M36 18H42V24H36V18Z" fill="#43413F"/>
<path d="M36 30H42V36H36V30Z" fill="#43413F"/>
<path d="M36 42H42V48H36V42Z" fill="#43413F"/>
<path d="M36 24H42V30H36V24Z" fill="#43413F"/>
<path d="M36 36H42V42H36V36Z" fill="#43413F"/>
<path d="M36 48H42V54H36V48Z" fill="black"/>
<path d="M72 0H78V6H72V0Z" fill="black"/>
<path d="M72 6H78V12H72V6Z" fill="#43413F"/>
<path d="M72 12H78V18H72V12Z" fill="#43413F"/>
<path d="M72 18H78V24H72V18Z" fill="#43413F"/>
<path d="M66 18H72V24H66V18Z" fill="#43413F"/>
<path d="M72 30H78V36H72V30Z" fill="#43413F"/>
<path d="M72 42H78V48H72V42Z" fill="#43413F"/>
<path d="M72 24H78V30H72V24Z" fill="#43413F"/>
<path d="M72 36H78V42H72V36Z" fill="#43413F"/>
<path d="M72 48H78V54H72V48Z" fill="#43413F"/>
<path d="M42 0H48V6H42V0Z" fill="black"/>
<path d="M42 6H48V12H42V6Z" fill="#43413F"/>
<path d="M42 12H48V18H42V12Z" fill="#43413F"/>
<path d="M42 18H48V24H42V18Z" fill="#43413F"/>
<path d="M42 30H48V36H42V30Z" fill="#43413F"/>
<path d="M42 42H48V48H42V42Z" fill="#43413F"/>
<path d="M42 24H48V30H42V24Z" fill="#43413F"/>
<path d="M42 36H48V42H42V36Z" fill="#43413F"/>
<path d="M42 48H48V54H42V48Z" fill="#43413F"/>
<path d="M78 0H84V6H78V0Z" fill="black"/>
<path d="M78 6H84V12H78V6Z" fill="#43413F"/>
<path d="M78 12H84V18H78V12Z" fill="#43413F"/>
<path d="M78 18H84V24H78V18Z" fill="#43413F"/>
<path d="M78 30H84V36H78V30Z" fill="#43413F"/>
<path d="M78 42H84V48H78V42Z" fill="#43413F"/>
<path d="M78 24H84V30H78V24Z" fill="#43413F"/>
<path d="M78 36H84V42H78V36Z" fill="#43413F"/>
<path d="M78 48H84V54H78V48Z" fill="#43413F"/>
<path d="M48 0H54V6H48V0Z" fill="black"/>
<path d="M48 6H54V12H48V6Z" fill="#43413F"/>
<path d="M48 12H54V18H48V12Z" fill="#43413F"/>
<path d="M48 18H54V24H48V18Z" fill="#43413F"/>
<path d="M54 18H60V24H54V18Z" fill="#43413F"/>
<path d="M48 30H54V36H48V30Z" fill="#43413F"/>
<path d="M48 42H54V48H48V42Z" fill="#43413F"/>
<path d="M48 24H54V30H48V24Z" fill="#43413F"/>
<path d="M48 36H54V42H48V36Z" fill="#43413F"/>
<path d="M48 48H54V54H48V48Z" fill="#43413F"/>
<path d="M54 6H60V12H54V6Z" fill="black"/>
<path d="M54 12H60V18H54V12Z" fill="black"/>
<path d="M60 18H66V24H60V18Z" fill="black"/>
<path d="M54 30H60V36H54V30Z" fill="#43413F"/>
<path d="M54 42H60V48H54V42Z" fill="#43413F"/>
<path d="M54 24H60V30H54V24Z" fill="#43413F"/>
<path d="M54 36H60V42H54V36Z" fill="#43413F"/>
<path d="M54 48H60V54H54V48Z" fill="black"/>
<path d="M60 30H66V36H60V30Z" fill="black"/>
<path d="M60 42H66V48H60V42Z" fill="black"/>
<path d="M60 24H66V30H60V24Z" fill="black"/>
<path d="M60 36H66V42H60V36Z" fill="black"/>
<path d="M60 48H66V54H60V48Z" fill="black"/>
<path d="M66 6H72V12H66V6Z" fill="black"/>
<path d="M66 12H72V18H66V12Z" fill="black"/>
<path d="M66 30H72V36H66V30Z" fill="#43413F"/>
<path d="M66 42H72V48H66V42Z" fill="#43413F"/>
<path d="M66 24H72V30H66V24Z" fill="#43413F"/>
<path d="M66 36H72V42H66V36Z" fill="#43413F"/>
<path d="M66 48H72V54H66V48Z" fill="black"/>
<path d="M90 6H96V12H90V6Z" fill="black"/>
<path d="M90 12H96V18H90V12Z" fill="#43413F"/>
<path d="M90 18H96V24H90V18Z" fill="#43413F"/>
<path d="M90 30H96V36H90V30Z" fill="#43413F"/>
<path d="M90 42H96V48H90V42Z" fill="black"/>
<path d="M90 24H96V30H90V24Z" fill="#43413F"/>
<path d="M90 36H96V42H90V36Z" fill="black"/>
<path d="M90 48H96V54H90V48Z" fill="#43413F"/>
<path d="M30 6H36V12H30V6Z" fill="black"/>
<path d="M30 12H36V18H30V12Z" fill="#43413F"/>
<path d="M30 18H36V24H30V18Z" fill="#43413F"/>
<path d="M30 30H36V36H30V30Z" fill="#43413F"/>
<path d="M30 42H36V48H30V42Z" fill="black"/>
<path d="M30 24H36V30H30V24Z" fill="#43413F"/>
<path d="M30 36H36V42H30V36Z" fill="black"/>
<path d="M30 48H36V54H30V48Z" fill="#43413F"/>
<path d="M24 12H30V18H24V12Z" fill="black"/>
<path d="M24 18H30V24H24V18Z" fill="black"/>
<path d="M24 30H30V36H24V30Z" fill="black"/>
<path d="M24 42H30V48H24V42Z" fill="#43413F"/>
<path d="M24 24H30V30H24V24Z" fill="black"/>
<path d="M24 36H30V42H24V36Z" fill="#43413F"/>
<path d="M24 48H30V54H24V48Z" fill="#43413F"/>
<path d="M96 12H102V18H96V12Z" fill="black"/>
<path d="M96 18H102V24H96V18Z" fill="black"/>
<path d="M96 30H102V36H96V30Z" fill="black"/>
<path d="M96 42H102V48H96V42Z" fill="#43413F"/>
<path d="M96 24H102V30H96V24Z" fill="black"/>
<path d="M96 36H102V42H96V36Z" fill="#43413F"/>
<path d="M96 48H102V54H96V48Z" fill="#43413F"/>
<path d="M84 0H90V6H84V0Z" fill="black"/>
<path d="M84 6H90V12H84V6Z" fill="#43413F"/>
<path d="M84 12H90V18H84V12Z" fill="#43413F"/>
<path d="M84 18H90V24H84V18Z" fill="#43413F"/>
<path d="M84 30H90V36H84V30Z" fill="#43413F"/>
<path d="M84 42H90V48H84V42Z" fill="#43413F"/>
<path d="M84 24H90V30H84V24Z" fill="#43413F"/>
<path d="M84 36H90V42H84V36Z" fill="#43413F"/>
<path d="M84 48H90V54H84V48Z" fill="black"/>
<path d="M36 54H42V60H36V54Z" fill="black"/>
<path d="M36 66H42V72H36V66Z" fill="black"/>
<path d="M36 78H42V84H36V78Z" fill="#43413F"/>
<path d="M36 96H42V102H36V96Z" fill="#43413F"/>
<path d="M36 108H42V114H36V108Z" fill="#43413F"/>
<path d="M78 108H84V114H78V108Z" fill="#43413F"/>
<path d="M54 96H60V102H54V96Z" fill="#43413F"/>
<path d="M54 108H60V114H54V108Z" fill="black"/>
<path d="M96 108H102V114H96V108Z" fill="black"/>
<path d="M72 96H78V102H72V96Z" fill="#43413F"/>
<path d="M90 96H96V102H90V96Z" fill="#43413F"/>
<path d="M96 96H102V102H96V96Z" fill="#43413F"/>
<path d="M114 54H120V60H114V54Z" fill="#43413F"/>
<path d="M114 66H120V72H114V66Z" fill="black"/>
<path d="M120 54H126V60H120V54Z" fill="black"/>
<path d="M0 54H6V60H0V54Z" fill="black"/>
<path d="M18 54H24V60H18V54Z" fill="#43413F"/>
<path d="M18 66H24V72H18V66Z" fill="#43413F"/>
<path d="M18 36H24V42H18V36Z" fill="#43413F"/>
<path d="M36 60H42V66H36V60Z" fill="black"/>
<path d="M36 72H42V78H36V72Z" fill="#43413F"/>
<path d="M36 90H42V96H36V90Z" fill="#43413F"/>
<path d="M54 90H60V96H54V90Z" fill="#43413F"/>
<path d="M72 90H78V96H72V90Z" fill="#43413F"/>
<path d="M90 90H96V96H90V90Z" fill="#43413F"/>
<path d="M96 90H102V96H96V90Z" fill="#43413F"/>
<path d="M114 48H120V54H114V48Z" fill="#43413F"/>
<path d="M120 48H126V54H120V48Z" fill="black"/>
<path d="M0 48H6V54H0V48Z" fill="black"/>
<path d="M18 48H24V54H18V48Z" fill="#43413F"/>
<path d="M18 30H24V36H18V30Z" fill="#43413F"/>
<path d="M18 24H24V30H18V24Z" fill="black"/>
<path d="M108 24H114V30H108V24Z" fill="black"/>
<path d="M108 30H114V36H108V30Z" fill="#43413F"/>
<path d="M114 30H120V36H114V30Z" fill="black"/>
<path d="M108 36H114V42H108V36Z" fill="#43413F"/>
<path d="M114 36H120V42H114V36Z" fill="#43413F"/>
<path d="M120 36H126V42H120V36Z" fill="black"/>
<path d="M0 36H6V42H0V36Z" fill="black"/>
<path d="M108 42H114V48H108V42Z" fill="#43413F"/>
<path d="M114 42H120V48H114V42Z" fill="#43413F"/>
<path d="M120 42H126V48H120V42Z" fill="black"/>
<path d="M0 42H6V48H0V42Z" fill="black"/>
<path d="M36 84H42V90H36V84Z" fill="#43413F"/>
<path d="M36 102H42V108H36V102Z" fill="#43413F"/>
<path d="M36 114H42V120H36V114Z" fill="black"/>
<path d="M78 114H84V120H78V114Z" fill="black"/>
<path d="M54 102H60V108H54V102Z" fill="#43413F"/>
<path d="M72 102H78V108H72V102Z" fill="#43413F"/>
<path d="M90 102H96V108H90V102Z" fill="#43413F"/>
<path d="M96 102H102V108H96V102Z" fill="#43413F"/>
<path d="M114 60H120V66H114V60Z" fill="#43413F"/>
<path d="M120 60H126V66H120V60Z" fill="black"/>
<path d="M0 60H6V66H0V60Z" fill="black"/>
<path d="M18 60H24V66H18V60Z" fill="#43413F"/>
<path d="M18 72H24V78H18V72Z" fill="#43413F"/>
<path d="M18 42H24V48H18V42Z" fill="#43413F"/>
<path d="M72 54H78V60H72V54Z" fill="black"/>
<path d="M72 66H78V72H72V66Z" fill="#43413F"/>
<path d="M72 78H78V84H72V78Z" fill="#43413F"/>
<path d="M72 60H78V66H72V60Z" fill="#43413F"/>
<path d="M72 72H78V78H72V72Z" fill="#43413F"/>
<path d="M72 84H78V90H72V84Z" fill="#43413F"/>
<path d="M42 54H48V60H42V54Z" fill="black"/>
<path d="M42 66H48V72H42V66Z" fill="#43413F"/>
<path d="M42 78H48V84H42V78Z" fill="#43413F"/>
<path d="M42 60H48V66H42V60Z" fill="black"/>
<path d="M42 72H48V78H42V72Z" fill="#43413F"/>
<path d="M42 84H48V90H42V84Z" fill="#43413F"/>
<path d="M78 54H84V60H78V54Z" fill="black"/>
<path d="M78 66H84V72H78V66Z" fill="#43413F"/>
<path d="M78 78H84V84H78V78Z" fill="#43413F"/>
<path d="M78 60H84V66H78V60Z" fill="black"/>
<path d="M78 72H84V78H78V72Z" fill="#43413F"/>
<path d="M78 84H84V90H78V84Z" fill="#43413F"/>
<path d="M48 54H54V60H48V54Z" fill="black"/>
<path d="M48 66H54V72H48V66Z" fill="#43413F"/>
<path d="M48 78H54V84H48V78Z" fill="#43413F"/>
<path d="M48 60H54V66H48V60Z" fill="#43413F"/>
<path d="M48 72H54V78H48V72Z" fill="#43413F"/>
<path d="M48 84H54V90H48V84Z" fill="#43413F"/>
<path d="M54 54H60V60H54V54Z" fill="black"/>
<path d="M54 66H60V72H54V66Z" fill="#43413F"/>
<path d="M54 78H60V84H54V78Z" fill="#43413F"/>
<path d="M54 60H60V66H54V60Z" fill="#43413F"/>
<path d="M54 72H60V78H54V72Z" fill="#43413F"/>
<path d="M54 84H60V90H54V84Z" fill="#43413F"/>
<path d="M60 54H66V60H60V54Z" fill="black"/>
<path d="M60 66H66V72H60V66Z" fill="#43413F"/>
<path d="M60 78H66V84H60V78Z" fill="#43413F"/>
<path d="M60 60H66V66H60V60Z" fill="#43413F"/>
<path d="M60 72H66V78H60V72Z" fill="#43413F"/>
<path d="M60 84H66V90H60V84Z" fill="#43413F"/>
<path d="M66 54H72V60H66V54Z" fill="black"/>
<path d="M66 66H72V72H66V66Z" fill="#43413F"/>
<path d="M66 78H72V84H66V78Z" fill="#43413F"/>
<path d="M66 60H72V66H66V60Z" fill="#43413F"/>
<path d="M66 72H72V78H66V72Z" fill="#43413F"/>
<path d="M66 84H72V90H66V84Z" fill="#43413F"/>
<path d="M90 54H96V60H90V54Z" fill="#43413F"/>
<path d="M90 66H96V72H90V66Z" fill="black"/>
<path d="M90 78H96V84H90V78Z" fill="#43413F"/>
<path d="M90 60H96V66H90V60Z" fill="#43413F"/>
<path d="M90 72H96V78H90V72Z" fill="black"/>
<path d="M90 84H96V90H90V84Z" fill="#43413F"/>
<path d="M30 54H36V60H30V54Z" fill="#43413F"/>
<path d="M30 66H36V72H30V66Z" fill="black"/>
<path d="M30 78H36V84H30V78Z" fill="#43413F"/>
<path d="M30 96H36V102H30V96Z" fill="#43413F"/>
<path d="M30 108H36V114H30V108Z" fill="#43413F"/>
<path d="M72 108H78V114H72V108Z" fill="#43413F"/>
<path d="M48 96H54V102H48V96Z" fill="#43413F"/>
<path d="M48 108H54V114H48V108Z" fill="#43413F"/>
<path d="M90 108H96V114H90V108Z" fill="#43413F"/>
<path d="M66 96H72V102H66V96Z" fill="#43413F"/>
<path d="M84 96H90V102H84V96Z" fill="#43413F"/>
<path d="M108 54H114V60H108V54Z" fill="#43413F"/>
<path d="M108 66H114V72H108V66Z" fill="#43413F"/>
<path d="M12 54H18V60H12V54Z" fill="#43413F"/>
<path d="M12 66H18V72H12V66Z" fill="#43413F"/>
<path d="M12 36H18V42H12V36Z" fill="#43413F"/>
<path d="M30 60H36V66H30V60Z" fill="#43413F"/>
<path d="M30 72H36V78H30V72Z" fill="black"/>
<path d="M30 90H36V96H30V90Z" fill="#43413F"/>
<path d="M48 90H54V96H48V90Z" fill="#43413F"/>
<path d="M66 90H72V96H66V90Z" fill="#43413F"/>
<path d="M84 90H90V96H84V90Z" fill="#43413F"/>
<path d="M108 48H114V54H108V48Z" fill="#43413F"/>
<path d="M12 48H18V54H12V48Z" fill="#43413F"/>
<path d="M12 30H18V36H12V30Z" fill="#43413F"/>
<path d="M12 24H18V30H12V24Z" fill="black"/>
<path d="M102 24H108V30H102V24Z" fill="black"/>
<path d="M102 30H108V36H102V30Z" fill="#43413F"/>
<path d="M102 36H108V42H102V36Z" fill="#43413F"/>
<path d="M102 42H108V48H102V42Z" fill="#43413F"/>
<path d="M30 84H36V90H30V84Z" fill="#43413F"/>
<path d="M30 102H36V108H30V102Z" fill="#43413F"/>
<path d="M30 114H36V120H30V114Z" fill="black"/>
<path d="M72 114H78V120H72V114Z" fill="black"/>
<path d="M48 102H54V108H48V102Z" fill="#43413F"/>
<path d="M48 114H54V120H48V114Z" fill="black"/>
<path d="M90 114H96V120H90V114Z" fill="black"/>
<path d="M66 102H72V108H66V102Z" fill="#43413F"/>
<path d="M84 102H90V108H84V102Z" fill="#43413F"/>
<path d="M108 60H114V66H108V60Z" fill="#43413F"/>
<path d="M108 72H114V78H108V72Z" fill="black"/>
<path d="M12 60H18V66H12V60Z" fill="#43413F"/>
<path d="M12 72H18V78H12V72Z" fill="black"/>
<path d="M12 42H18V48H12V42Z" fill="#43413F"/>
<path d="M24 54H30V60H24V54Z" fill="#43413F"/>
<path d="M24 66H30V72H24V66Z" fill="#43413F"/>
<path d="M24 78H30V84H24V78Z" fill="black"/>
<path d="M18 78H24V84H18V78Z" fill="black"/>
<path d="M102 78H108V84H102V78Z" fill="black"/>
<path d="M24 96H30V102H24V96Z" fill="#43413F"/>
<path d="M24 108H30V114H24V108Z" fill="black"/>
<path d="M66 108H72V114H66V108Z" fill="black"/>
<path d="M18 96H24V102H18V96Z" fill="black"/>
<path d="M102 96H108V102H102V96Z" fill="black"/>
<path d="M42 96H48V102H42V96Z" fill="#43413F"/>
<path d="M42 108H48V114H42V108Z" fill="#43413F"/>
<path d="M84 108H90V114H84V108Z" fill="#43413F"/>
<path d="M60 96H66V102H60V96Z" fill="#43413F"/>
<path d="M78 96H84V102H78V96Z" fill="#43413F"/>
<path d="M102 54H108V60H102V54Z" fill="#43413F"/>
<path d="M102 66H108V72H102V66Z" fill="#43413F"/>
<path d="M6 54H12V60H6V54Z" fill="#43413F"/>
<path d="M6 66H12V72H6V66Z" fill="black"/>
<path d="M6 36H12V42H6V36Z" fill="#43413F"/>
<path d="M24 60H30V66H24V60Z" fill="#43413F"/>
<path d="M24 72H30V78H24V72Z" fill="black"/>
<path d="M24 90H30V96H24V90Z" fill="#43413F"/>
<path d="M18 90H24V96H18V90Z" fill="black"/>
<path d="M102 90H108V96H102V90Z" fill="black"/>
<path d="M42 90H48V96H42V90Z" fill="#43413F"/>
<path d="M60 90H66V96H60V90Z" fill="#43413F"/>
<path d="M78 90H84V96H78V90Z" fill="#43413F"/>
<path d="M102 48H108V54H102V48Z" fill="#43413F"/>
<path d="M6 48H12V54H6V48Z" fill="#43413F"/>
<path d="M6 30H12V36H6V30Z" fill="black"/>
<path d="M24 84H30V90H24V84Z" fill="#43413F"/>
<path d="M18 84H24V90H18V84Z" fill="black"/>
<path d="M102 84H108V90H102V84Z" fill="black"/>
<path d="M24 102H30V108H24V102Z" fill="#43413F"/>
<path d="M18 102H24V108H18V102Z" fill="black"/>
<path d="M102 102H108V108H102V102Z" fill="black"/>
<path d="M42 102H48V108H42V102Z" fill="#43413F"/>
<path d="M42 114H48V120H42V114Z" fill="black"/>
<path d="M84 114H90V120H84V114Z" fill="black"/>
<path d="M60 102H66V108H60V102Z" fill="black"/>
<path d="M78 102H84V108H78V102Z" fill="#43413F"/>
<path d="M102 60H108V66H102V60Z" fill="#43413F"/>
<path d="M102 72H108V78H102V72Z" fill="#43413F"/>
<path d="M6 60H12V66H6V60Z" fill="#43413F"/>
<path d="M6 42H12V48H6V42Z" fill="#43413F"/>
<path d="M96 54H102V60H96V54Z" fill="#43413F"/>
<path d="M96 66H102V72H96V66Z" fill="#43413F"/>
<path d="M96 78H102V84H96V78Z" fill="black"/>
<path d="M96 60H102V66H96V60Z" fill="#43413F"/>
<path d="M96 72H102V78H96V72Z" fill="black"/>
<path d="M96 84H102V90H96V84Z" fill="#43413F"/>
<path d="M84 54H90V60H84V54Z" fill="black"/>
<path d="M84 66H90V72H84V66Z" fill="black"/>
<path d="M84 78H90V84H84V78Z" fill="#43413F"/>
<path d="M84 60H90V66H84V60Z" fill="black"/>
<path d="M84 72H90V78H84V72Z" fill="#43413F"/>
<path d="M84 84H90V90H84V84Z" fill="#43413F"/>
</svg>
