<svg width="66" height="78" viewBox="0 0 66 78" fill="none" xmlns="http://www.w3.org/2000/svg">
<path d="M24 0H30V6H24V0Z" fill="black"/>
<path d="M18 6H24V12H18V6Z" fill="black"/>
<path d="M12 12H18V18H12V12Z" fill="black"/>
<path d="M12 18H18V24H12V18Z" fill="black"/>
<path d="M12 24H18V30H12V24Z" fill="black"/>
<path d="M6 30H12V36H6V30Z" fill="black"/>
<path d="M6 36H12V42H6V36Z" fill="#8B847D"/>
<path d="M0 36H6V42H0V36Z" fill="black"/>
<path d="M60 36H66V42H60V36Z" fill="black"/>
<path d="M6 42H12V48H6V42Z" fill="#8B847D"/>
<path d="M0 42H6V48H0V42Z" fill="black"/>
<path d="M60 42H66V48H60V42Z" fill="black"/>
<path d="M6 48H12V54H6V48Z" fill="#8B847D"/>
<path d="M0 48H6V54H0V48Z" fill="black"/>
<path d="M60 48H66V54H60V48Z" fill="black"/>
<path d="M6 54H12V60H6V54Z" fill="#8B847D"/>
<path d="M0 54H6V60H0V54Z" fill="black"/>
<path d="M60 54H66V60H60V54Z" fill="black"/>
<path d="M6 60H12V66H6V60Z" fill="#8B847D"/>
<path d="M0 60H6V66H0V60Z" fill="black"/>
<path d="M60 60H66V66H60V60Z" fill="black"/>
<path d="M6 66H12V72H6V66Z" fill="#8B847D"/>
<path d="M0 66H6V72H0V66Z" fill="black"/>
<path d="M60 66H66V72H60V66Z" fill="black"/>
<path d="M6 72H12V78H6V72Z" fill="black"/>
<path d="M24 30H30V36H24V30Z" fill="black"/>
<path d="M24 36H30V42H24V36Z" fill="#8B847D"/>
<path d="M24 42H30V48H24V42Z" fill="black"/>
<path d="M24 48H30V54H24V48Z" fill="black"/>
<path d="M24 54H30V60H24V54Z" fill="#8B847D"/>
<path d="M24 60H30V66H24V60Z" fill="#8B847D"/>
<path d="M24 66H30V72H24V66Z" fill="#726B64"/>
<path d="M24 72H30V78H24V72Z" fill="black"/>
<path d="M42 30H48V36H42V30Z" fill="black"/>
<path d="M42 36H48V42H42V36Z" fill="#8B847D"/>
<path d="M42 42H48V48H42V42Z" fill="#8B847D"/>
<path d="M42 48H48V54H42V48Z" fill="#8B847D"/>
<path d="M42 54H48V60H42V54Z" fill="#8B847D"/>
<path d="M42 60H48V66H42V60Z" fill="#726B64"/>
<path d="M42 66H48V72H42V66Z" fill="#726B64"/>
<path d="M42 72H48V78H42V72Z" fill="black"/>
<path d="M36 24H42V30H36V24Z" fill="black"/>
<path d="M36 18H42V24H36V18Z" fill="black"/>
<path d="M36 12H42V18H36V12Z" fill="#8B847D"/>
<path d="M36 6H42V12H36V6Z" fill="#8B847D"/>
<path d="M30 0H36V6H30V0Z" fill="black"/>
<path d="M24 6H30V12H24V6Z" fill="#8B847D"/>
<path d="M18 12H24V18H18V12Z" fill="#8B847D"/>
<path d="M18 18H24V24H18V18Z" fill="#8B847D"/>
<path d="M18 24H24V30H18V24Z" fill="#8B847D"/>
<path d="M12 30H18V36H12V30Z" fill="black"/>
<path d="M12 36H18V42H12V36Z" fill="#8B847D"/>
<path d="M12 42H18V48H12V42Z" fill="#8B847D"/>
<path d="M12 48H18V54H12V48Z" fill="#8B847D"/>
<path d="M12 54H18V60H12V54Z" fill="#8B847D"/>
<path d="M12 60H18V66H12V60Z" fill="#8B847D"/>
<path d="M12 66H18V72H12V66Z" fill="#8B847D"/>
<path d="M12 72H18V78H12V72Z" fill="black"/>
<path d="M30 30H36V36H30V30Z" fill="black"/>
<path d="M30 36H36V42H30V36Z" fill="#8B847D"/>
<path d="M30 42H36V48H30V42Z" fill="black"/>
<path d="M30 48H36V54H30V48Z" fill="black"/>
<path d="M30 54H36V60H30V54Z" fill="black"/>
<path d="M30 60H36V66H30V60Z" fill="black"/>
<path d="M30 66H36V72H30V66Z" fill="#726B64"/>
<path d="M30 72H36V78H30V72Z" fill="black"/>
<path d="M48 30H54V36H48V30Z" fill="black"/>
<path d="M48 36H54V42H48V36Z" fill="#8B847D"/>
<path d="M48 42H54V48H48V42Z" fill="#8B847D"/>
<path d="M48 48H54V54H48V48Z" fill="#726B64"/>
<path d="M48 54H54V60H48V54Z" fill="#726B64"/>
<path d="M48 60H54V66H48V60Z" fill="#726B64"/>
<path d="M48 66H54V72H48V66Z" fill="#726B64"/>
<path d="M48 72H54V78H48V72Z" fill="black"/>
<path d="M42 24H48V30H42V24Z" fill="#8B847D"/>
<path d="M42 18H48V24H42V18Z" fill="#8B847D"/>
<path d="M42 12H48V18H42V12Z" fill="#8B847D"/>
<path d="M42 6H48V12H42V6Z" fill="black"/>
<path d="M36 0H42V6H36V0Z" fill="black"/>
<path d="M30 6H36V12H30V6Z" fill="#8B847D"/>
<path d="M24 12H30V18H24V12Z" fill="#8B847D"/>
<path d="M24 18H30V24H24V18Z" fill="black"/>
<path d="M24 24H30V30H24V24Z" fill="black"/>
<path d="M18 30H24V36H18V30Z" fill="black"/>
<path d="M18 36H24V42H18V36Z" fill="#8B847D"/>
<path d="M18 42H24V48H18V42Z" fill="#8B847D"/>
<path d="M18 48H24V54H18V48Z" fill="#8B847D"/>
<path d="M18 54H24V60H18V54Z" fill="#8B847D"/>
<path d="M18 60H24V66H18V60Z" fill="#8B847D"/>
<path d="M18 66H24V72H18V66Z" fill="#8B847D"/>
<path d="M18 72H24V78H18V72Z" fill="black"/>
<path d="M36 30H42V36H36V30Z" fill="black"/>
<path d="M36 36H42V42H36V36Z" fill="#8B847D"/>
<path d="M36 42H42V48H36V42Z" fill="black"/>
<path d="M36 48H42V54H36V48Z" fill="black"/>
<path d="M36 54H42V60H36V54Z" fill="#8B847D"/>
<path d="M36 60H42V66H36V60Z" fill="#8B847D"/>
<path d="M36 66H42V72H36V66Z" fill="#726B64"/>
<path d="M36 72H42V78H36V72Z" fill="black"/>
<path d="M54 30H60V36H54V30Z" fill="black"/>
<path d="M54 36H60V42H54V36Z" fill="#8B847D"/>
<path d="M54 42H60V48H54V42Z" fill="#726B64"/>
<path d="M54 48H60V54H54V48Z" fill="#726B64"/>
<path d="M54 54H60V60H54V54Z" fill="#726B64"/>
<path d="M54 60H60V66H54V60Z" fill="#726B64"/>
<path d="M54 66H60V72H54V66Z" fill="#726B64"/>
<path d="M54 72H60V78H54V72Z" fill="black"/>
<path d="M48 24H54V30H48V24Z" fill="black"/>
<path d="M48 18H54V24H48V18Z" fill="black"/>
<path d="M48 12H54V18H48V12Z" fill="black"/>
<path d="M30 12H36V18H30V12Z" fill="black"/>
</svg>
