<svg xmlns="http://www.w3.org/2000/svg">
    <symbol id="icon-paw-main-1" viewBox="0 0 66 60" fill="none" xmlns="http://www.w3.org/2000/svg">
        <path d="M18 0H24V6H18V0Z" fill="black"/>
        <path d="M12 6H18V12H12V6Z" fill="black"/>
        <path d="M6 12H12V18H6V12Z" fill="black"/>
        <path d="M0 18H6V24H0V18Z" fill="black"/>
        <path d="M0 24H6V30H0V24Z" fill="black"/>
        <path d="M0 30H6V36H0V30Z" fill="black"/>
        <path d="M36 12H42V18H36V12Z" fill="#43413F"/>
        <path d="M42 6H48V12H42V6Z" fill="#43413F"/>
        <path d="M48 12H54V18H48V12Z" fill="black"/>
        <path d="M30 18H36V24H30V18Z" fill="black"/>
        <path d="M30 24H36V30H30V24Z" fill="#43413F"/>
        <path d="M30 30H36V36H30V30Z" fill="#43413F"/>
        <path d="M30 36H36V42H30V36Z" fill="#43413F"/>
        <path d="M30 42H36V48H30V42Z" fill="#43413F"/>
        <path d="M30 48H36V54H30V48Z" fill="black"/>
        <path d="M24 0H30V6H24V0Z" fill="black"/>
        <path d="M18 6H24V12H18V6Z" fill="#43413F"/>
        <path d="M12 12H18V18H12V12Z" fill="black"/>
        <path d="M6 18H12V24H6V18Z" fill="#43413F"/>
        <path d="M6 24H12V30H6V24Z" fill="#43413F"/>
        <path d="M6 30H12V36H6V30Z" fill="black"/>
        <path d="M6 36H12V42H6V36Z" fill="black"/>
        <path d="M6 42H12V48H6V42Z" fill="black"/>
        <path d="M42 12H48V18H42V12Z" fill="#43413F"/>
        <path d="M48 6H54V12H48V6Z" fill="black"/>
        <path d="M54 12H60V18H54V12Z" fill="black"/>
        <path d="M60 18H66V24H60V18Z" fill="black"/>
        <path d="M60 24H66V30H60V24Z" fill="black"/>
        <path d="M60 30H66V36H60V30Z" fill="black"/>
        <path d="M36 18H42V24H36V18Z" fill="black"/>
        <path d="M36 24H42V30H36V24Z" fill="#43413F"/>
        <path d="M36 30H42V36H36V30Z" fill="#43413F"/>
        <path d="M36 36H42V42H36V36Z" fill="#43413F"/>
        <path d="M36 42H42V48H36V42Z" fill="#43413F"/>
        <path d="M36 48H42V54H36V48Z" fill="#43413F"/>
        <path d="M36 54H42V60H36V54Z" fill="black"/>
        <path d="M30 0H36V6H30V0Z" fill="black"/>
        <path d="M24 6H30V12H24V6Z" fill="#43413F"/>
        <path d="M18 12H24V18H18V12Z" fill="#43413F"/>
        <path d="M12 18H18V24H12V18Z" fill="#43413F"/>
        <path d="M12 24H18V30H12V24Z" fill="#43413F"/>
        <path d="M12 30H18V36H12V30Z" fill="black"/>
        <path d="M12 36H18V42H12V36Z" fill="#43413F"/>
        <path d="M12 42H18V48H12V42Z" fill="#43413F"/>
        <path d="M12 48H18V54H12V48Z" fill="black"/>
        <path d="M42 18H48V24H42V18Z" fill="black"/>
        <path d="M42 24H48V30H42V24Z" fill="black"/>
        <path d="M42 30H48V36H42V30Z" fill="#43413F"/>
        <path d="M42 36H48V42H42V36Z" fill="#43413F"/>
        <path d="M42 42H48V48H42V42Z" fill="#43413F"/>
        <path d="M42 48H48V54H42V48Z" fill="#43413F"/>
        <path d="M42 54H48V60H42V54Z" fill="black"/>
        <path d="M36 0H42V6H36V0Z" fill="black"/>
        <path d="M30 6H36V12H30V6Z" fill="black"/>
        <path d="M24 12H30V18H24V12Z" fill="#43413F"/>
        <path d="M18 18H24V24H18V18Z" fill="black"/>
        <path d="M18 24H24V30H18V24Z" fill="black"/>
        <path d="M18 30H24V36H18V30Z" fill="#43413F"/>
        <path d="M18 36H24V42H18V36Z" fill="#43413F"/>
        <path d="M18 42H24V48H18V42Z" fill="#43413F"/>
        <path d="M18 48H24V54H18V48Z" fill="#43413F"/>
        <path d="M18 54H24V60H18V54Z" fill="black"/>
        <path d="M48 18H54V24H48V18Z" fill="#43413F"/>
        <path d="M48 24H54V30H48V24Z" fill="#43413F"/>
        <path d="M48 30H54V36H48V30Z" fill="black"/>
        <path d="M48 36H54V42H48V36Z" fill="#43413F"/>
        <path d="M48 42H54V48H48V42Z" fill="#43413F"/>
        <path d="M48 48H54V54H48V48Z" fill="black"/>
        <path d="M42 0H48V6H42V0Z" fill="black"/>
        <path d="M36 6H42V12H36V6Z" fill="#43413F"/>
        <path d="M30 12H36V18H30V12Z" fill="black"/>
        <path d="M24 18H30V24H24V18Z" fill="black"/>
        <path d="M24 24H30V30H24V24Z" fill="#43413F"/>
        <path d="M24 30H30V36H24V30Z" fill="#43413F"/>
        <path d="M24 36H30V42H24V36Z" fill="#43413F"/>
        <path d="M24 42H30V48H24V42Z" fill="#43413F"/>
        <path d="M24 48H30V54H24V48Z" fill="#43413F"/>
        <path d="M24 54H30V60H24V54Z" fill="black"/>
        <path d="M54 18H60V24H54V18Z" fill="#43413F"/>
        <path d="M54 24H60V30H54V24Z" fill="#43413F"/>
        <path d="M54 30H60V36H54V30Z" fill="black"/>
        <path d="M54 36H60V42H54V36Z" fill="black"/>
        <path d="M54 42H60V48H54V42Z" fill="black"/>
    </symbol>

</svg>